<svg xmlns="http://www.w3.org/2000/svg" width="625.053" height="125.332" viewBox="0 0 625.053 125.332">
  <g id="Groupe_14" data-name="Groupe 14" transform="translate(-213.618 -26.289)">
    <g id="Groupe_6" data-name="Groupe 6" transform="translate(213.618 26.325)">
      <g id="Groupe_1" data-name="Groupe 1" transform="translate(53.085 90.056)">
        <path id="Tracé_1" data-name="Tracé 1" d="M315.573,185.722a20.472,20.472,0,0,1-18.066,4.888l19.319-18.7L296.4,189.388A20.5,20.5,0,0,1,322,167.2,20.492,20.492,0,0,1,315.573,185.722Z" transform="translate(-296.259 -166.521)" fill="#96bf66"/>
      </g>
      <g id="Groupe_3" data-name="Groupe 3" transform="translate(1.836 83.408)">
        <g id="Groupe_2" data-name="Groupe 2">
          <path id="Tracé_2" data-name="Tracé 2" d="M241.469,164.2a26.587,26.587,0,0,1,7.166,23.225L223.489,163.2,247.1,188.921A26.627,26.627,0,0,1,217.135,156.7,26.611,26.611,0,0,1,241.469,164.2Z" transform="translate(-216.477 -156.173)" fill="#abdf75"/>
        </g>
      </g>
      <path id="Tracé_3" data-name="Tracé 3" d="M285.683,150.948v39.508a52.822,52.822,0,0,0-11.487,3.155V150.948Z" transform="translate(-235.283 -70.896)" fill="#abdf75"/>
      <g id="Groupe_5" data-name="Groupe 5">
        <path id="Tracé_4" data-name="Tracé 4" d="M302.93,70.981a44.535,44.535,0,0,1-4.865,20.3.075.075,0,0,0-.019.039,44.663,44.663,0,0,1-84.428-20.335,43.638,43.638,0,0,1,.469-6.427,44.654,44.654,0,0,1,88.843,6.427Z" transform="translate(-213.618 -26.325)" fill="#abdf75"/>
        <g id="Groupe_4" data-name="Groupe 4" transform="translate(0 5.254)">
          <path id="Tracé_5" data-name="Tracé 5" d="M321.6,73.906a44.535,44.535,0,0,1-4.865,20.3.075.075,0,0,0-.019.039,43.8,43.8,0,0,1-4.464,6.036v-5.03a12.514,12.514,0,0,0-12.5-12.5H294.4a10.725,10.725,0,0,0-10.715-10.714H265.818V63.1a1.788,1.788,0,0,1,1.787-1.787h3.575a5.356,5.356,0,0,0,5.352-5.362,8.946,8.946,0,0,1,8.937-8.927,12.511,12.511,0,0,0,12.493-12.5v-.02A44.631,44.631,0,0,1,321.6,73.906Z" transform="translate(-232.287 -34.505)" fill="#4da3f7"/>
          <path id="Tracé_6" data-name="Tracé 6" d="M248.907,125.454v10.2a41.974,41.974,0,0,1-6.456-1.621,44.653,44.653,0,0,1-28.833-41.765,43.638,43.638,0,0,1,.469-6.427l24.106,24.106v3.135A12.514,12.514,0,0,0,248.907,125.454Z" transform="translate(-213.618 -52.864)" fill="#4da3f7"/>
        </g>
      </g>
      <path id="Tracé_7" data-name="Tracé 7" d="M292.078,217.365" transform="translate(-241.679 -94.65)" fill="#abdf75"/>
    </g>
    <path id="Union_1" data-name="Union 1" d="M31.774-179.513l7.014-9.943a23.23,23.23,0,0,0,16.419,6.782c4.548,0,7.322-1.772,7.322-4.239,0-7.014-29.137-1.387-29.137-21.2,0-8.633,7.323-16.34,20.5-16.34,8.248,0,15.416,2.466,20.888,7.169L67.54-207.8a24.2,24.2,0,0,0-15.03-5.319c-3.855,0-5.55,1.542-5.55,3.7,0,6.551,29.059,1.773,29.059,20.889,0,10.328-7.631,17.188-21.429,17.188C44.185-171.343,36.939-174.58,31.774-179.513ZM-156.3-197.935c0-15.879,12.024-26.592,27.825-26.592,12.41,0,19.039,7.015,22.43,13.8l-11.408,5.4a12.345,12.345,0,0,0-11.022-7.476c-8.4,0-14.336,6.475-14.336,14.876s5.935,14.876,14.336,14.876a12.345,12.345,0,0,0,11.022-7.476l11.408,5.4c-3.314,6.629-10.02,13.8-22.43,13.8C-144.279-171.343-156.3-182.134-156.3-197.935Zm470.511,25.668V-182.6c22.275-16.11,26.438-19.656,26.438-24.743,0-3.546-3.315-5.4-7.091-5.4a19.2,19.2,0,0,0-13.721,5.626l-7.322-8.787c5.473-6.012,13.643-8.555,20.812-8.555,12.1,0,20.812,6.783,20.812,17.112,0,7.862-5.628,14.567-18.422,23.509H354.52v11.562Zm-46.789,0V-182.6c22.276-16.11,26.438-19.656,26.438-24.743,0-3.546-3.315-5.4-7.092-5.4a19.2,19.2,0,0,0-13.72,5.626l-7.323-8.787c5.473-6.012,13.644-8.555,20.813-8.555,12.1,0,20.811,6.783,20.811,17.112,0,7.862-5.626,14.567-18.421,23.509h18.807v11.562Zm-178.6,0V-182.6c22.277-16.11,26.439-19.656,26.439-24.743,0-3.546-3.315-5.4-7.091-5.4a19.2,19.2,0,0,0-13.721,5.626l-7.322-8.787c5.472-6.012,13.643-8.555,20.811-8.555,12.1,0,20.812,6.783,20.812,17.112,0,7.862-5.627,14.567-18.423,23.509h18.808v11.562Zm-98.745,0V-223.68H27.765v11.562H3.331v8.016h23.9v11.561H3.331v8.71H27.765v11.562Zm-22.507,0V-223.68h13.257v51.413Zm-33.916,0v-39.85H-80.764V-223.68h42.008v11.562H-53.093v39.85Zm-33.992,0V-223.68h13.257v51.413Zm263.392-.309a26.439,26.439,0,0,1-26.439-26.439,26.439,26.439,0,0,1,26.439-26.439H233.2a26.44,26.44,0,0,1,26.439,26.439A26.44,26.44,0,0,1,233.2-172.576Zm-13.593-26.439a13.608,13.608,0,0,0,13.593,13.593H233.2a13.608,13.608,0,0,0,13.592-13.593A13.607,13.607,0,0,0,233.2-212.607H163.05A13.607,13.607,0,0,0,149.458-199.015ZM-52.86-250.738l7.015-9.943A23.226,23.226,0,0,0-29.427-253.9c4.549,0,7.323-1.772,7.323-4.239,0-7.015-29.137-1.388-29.137-21.2,0-8.634,7.322-16.341,20.5-16.341,8.248,0,15.416,2.467,20.889,7.168l-7.246,9.481a24.2,24.2,0,0,0-15.03-5.319c-3.855,0-5.549,1.543-5.549,3.7,0,6.552,29.058,1.772,29.058,20.888,0,10.328-7.631,17.189-21.428,17.189C-40.45-242.567-47.695-245.8-52.86-250.738ZM-106.971-264.3v-30.6h13.488v30.138c0,6.089,3.623,10.482,10.869,10.482,7.091,0,10.791-4.393,10.791-10.482V-294.9h13.412v30.523c0,12.8-7.786,21.814-24.2,21.814C-99.186-242.567-106.971-251.663-106.971-264.3Zm-50.411,13.566,7.014-9.943a23.226,23.226,0,0,0,16.418,6.783c4.549,0,7.323-1.772,7.323-4.239,0-7.015-29.136-1.388-29.136-21.2,0-8.634,7.322-16.341,20.5-16.341,8.248,0,15.416,2.467,20.889,7.168l-7.246,9.481a24.2,24.2,0,0,0-15.03-5.319c-3.854,0-5.549,1.543-5.549,3.7,0,6.552,29.058,1.772,29.058,20.888,0,10.328-7.631,17.189-21.428,17.189C-144.972-242.567-152.218-245.8-157.382-250.738Zm474.437,7.246V-294.9h37.691v11.562H330.312v8.016h23.894v11.562H330.312v8.71h24.434v11.561Zm-40.776,0V-294.9h13.258v39.851h20.657v11.561Zm-52.416,0V-294.9H253c10.175,0,15.031,6.629,15.031,13.1,0,6.4-3.931,10.715-8.787,11.793,5.472.848,9.788,6.089,9.788,12.565,0,7.476-5.01,13.951-15.107,13.951Zm13.259-11.177h13.334c3.16,0,5.088-1.85,5.088-4.624,0-2.543-1.85-4.625-5.088-4.625H237.121Zm0-20.5h12.872a4.232,4.232,0,0,0,4.548-4.316,4.217,4.217,0,0,0-4.548-4.239H237.121Zm-32.067,31.68-2.543-7.4H182.239l-2.543,7.4H164.665L184.011-294.9H200.66l19.425,51.413Zm-19.27-18.961h13.1L192.335-281.8Zm-37.693,18.961-21.736-29.753v29.753H113.1V-294.9H126.74l20.813,28.289V-294.9h13.333v51.413Zm-57.5,0V-294.9h13.257v51.413Zm-18.808,0-2.543-7.4H48.965l-2.543,7.4H31.39L50.738-294.9H67.388l19.424,51.413Zm-19.27-18.961h13.1L59.063-281.8ZM7.727-243.492v-39.85H-6.688V-294.9H35.32v11.562H20.984v39.85Z" transform="translate(483.425 322.464)" fill="#f4f4f4" stroke="rgba(0,0,0,0)" stroke-miterlimit="10" stroke-width="1"/>
  </g>
</svg>
